<?xml version="1.0" encoding="UTF-8" standalone="no"?>
<!DOCTYPE svg PUBLIC "-//W3C//DTD SVG 1.1//EN" "http://www.w3.org/Graphics/SVG/1.1/DTD/svg11.dtd">
<!-- Created with Vectornator (http://vectornator.io/) -->
<svg height="100%" stroke-miterlimit="10" style="fill-rule:nonzero;clip-rule:evenodd;stroke-linecap:round;stroke-linejoin:round;" version="1.1" viewBox="0 0 640 400" width="100%" xml:space="preserve" xmlns="http://www.w3.org/2000/svg" xmlns:vectornator="http://vectornator.io" xmlns:xlink="http://www.w3.org/1999/xlink">
<defs/>
<g id="Untitled" vectornator:layerName="Untitled">
<path d="M0 0L640 0L640 0L640 400L640 400L0 400L0 400L0 0L0 0Z" fill="#ffffff" fill-rule="nonzero" opacity="1" stroke="none"/>
</g>
<g id="tight-bounds" vectornator:layerName="tight-bounds">
<g opacity="1">
<path d="M123.247 217.293L123.247 247.464L121.405 247.464L121.405 217.293L123.247 217.293ZM149.459 240.131L149.459 240.131C149.459 238.943 149.187 237.925 148.644 237.076C148.095 236.222 147.178 235.469 145.894 234.818C144.609 234.162 142.875 233.537 140.69 232.943L140.69 232.943C139.174 232.513 137.804 232.052 136.582 231.559C135.36 231.073 134.316 230.507 133.45 229.862C132.59 229.217 131.931 228.456 131.472 227.579C131.014 226.702 130.785 225.664 130.785 224.464L130.785 224.464C130.785 222.92 131.221 221.579 132.092 220.442C132.963 219.31 134.16 218.433 135.682 217.811C137.199 217.188 138.925 216.877 140.86 216.877L140.86 216.877C142.892 216.877 144.671 217.265 146.199 218.04C147.721 218.815 148.913 219.876 149.773 221.222C150.627 222.569 151.054 224.105 151.054 225.831L151.054 225.831L149.212 225.831C149.212 224.439 148.873 223.189 148.194 222.08C147.52 220.976 146.561 220.108 145.316 219.474C144.071 218.835 142.586 218.515 140.86 218.515L140.86 218.515C139.078 218.515 137.575 218.79 136.353 219.338C135.131 219.882 134.205 220.6 133.577 221.494C132.949 222.382 132.635 223.358 132.635 224.422L132.635 224.422C132.635 225.429 132.89 226.34 133.399 227.155C133.908 227.97 134.788 228.714 136.039 229.387C137.289 230.054 139.027 230.68 141.251 231.262L141.251 231.262C143.31 231.811 145.093 232.456 146.598 233.197C148.103 233.939 149.269 234.858 150.095 235.956C150.916 237.053 151.326 238.431 151.326 240.089L151.326 240.089C151.326 241.73 150.87 243.136 149.959 244.307C149.048 245.472 147.815 246.358 146.259 246.963C144.702 247.574 142.96 247.88 141.03 247.88L141.03 247.88C139.717 247.88 138.396 247.716 137.066 247.388C135.742 247.065 134.534 246.553 133.442 245.851C132.349 245.144 131.472 244.216 130.81 243.068C130.148 241.925 129.817 240.53 129.817 238.884L129.817 238.884L131.659 238.884C131.659 240.281 131.942 241.45 132.508 242.389C133.074 243.328 133.821 244.08 134.749 244.646C135.671 245.212 136.681 245.619 137.779 245.868C138.882 246.117 139.966 246.242 141.03 246.242L141.03 246.242C142.699 246.242 144.165 245.982 145.427 245.461C146.694 244.946 147.682 244.233 148.389 243.322C149.102 242.411 149.459 241.348 149.459 240.131ZM166.307 218.659L155.629 247.464L153.686 247.464L165.017 217.293L166.494 217.293L166.307 218.659ZM176.357 247.464L165.662 218.659L165.476 217.293L166.927 217.293L178.284 247.464L176.357 247.464ZM173.828 237.084L173.828 238.722L158.244 238.722L158.244 237.084L173.828 237.084ZM193.164 232.756L184.226 232.756L184.183 231.135L191.687 231.135C194.177 231.135 196.078 230.629 197.391 229.616C198.704 228.598 199.36 227.067 199.36 225.025L199.36 225.025C199.36 222.982 198.69 221.454 197.348 220.442C196.007 219.435 194.01 218.931 191.356 218.931L191.356 218.931L184.769 218.931L184.769 247.464L182.927 247.464L182.927 217.293L191.356 217.293C194.412 217.293 196.819 217.918 198.579 219.169C200.339 220.419 201.219 222.399 201.219 225.109L201.219 225.109C201.219 226.349 200.964 227.466 200.455 228.462C199.946 229.458 199.216 230.267 198.265 230.889C197.32 231.511 196.177 231.899 194.836 232.052L194.836 232.052L193.164 232.756ZM192.952 247.464L183.793 247.464L184.625 245.826L192.952 245.826C195.328 245.826 197.198 245.232 198.562 244.044C199.92 242.856 200.599 241.206 200.599 239.096L200.599 239.096C200.599 237.947 200.331 236.892 199.793 235.93C199.255 234.974 198.432 234.205 197.323 233.622C196.22 233.045 194.833 232.756 193.164 232.756L193.164 232.756L188.062 232.756L188.105 231.135L195.422 231.135L195.685 231.721C196.998 231.857 198.163 232.27 199.182 232.96C200.195 233.65 200.993 234.527 201.576 235.591C202.153 236.654 202.441 237.809 202.441 239.053L202.441 239.053C202.441 241.775 201.564 243.857 199.81 245.3C198.056 246.743 195.77 247.464 192.952 247.464L192.952 247.464ZM227.286 245.826L227.286 247.464L209.817 247.464L209.817 245.826L227.286 245.826ZM210.564 217.293L210.564 247.464L208.722 247.464L208.722 217.293L210.564 217.293ZM225.172 231.118L225.172 232.756L209.817 232.756L209.817 231.118L225.172 231.118ZM227.244 217.293L227.244 218.931L209.817 218.931L209.817 217.293L227.244 217.293ZM249.941 245.826L249.941 247.464L234 247.464L234 245.826L249.941 245.826ZM234.747 217.293L234.747 247.464L232.88 247.464L232.88 217.293L234.747 217.293ZM248.735 215.638L248.735 218.846L248.404 224.549L246.953 224.549L247.097 218.956L247.097 215.638L248.735 215.638ZM272.977 240.131L272.977 240.131C272.977 238.943 272.703 237.925 272.154 237.076C271.611 236.222 270.697 235.469 269.412 234.818C268.128 234.162 266.393 233.537 264.209 232.943L264.209 232.943C262.693 232.513 261.323 232.052 260.101 231.559C258.873 231.073 257.829 230.507 256.969 229.862C256.103 229.217 255.444 228.456 254.991 227.579C254.533 226.702 254.304 225.664 254.304 224.464L254.304 224.464C254.304 222.92 254.739 221.579 255.611 220.442C256.482 219.31 257.676 218.433 259.193 217.811C260.715 217.188 262.444 216.877 264.379 216.877L264.379 216.877C266.41 216.877 268.187 217.265 269.709 218.04C271.237 218.815 272.431 219.876 273.291 221.222C274.146 222.569 274.573 224.105 274.573 225.831L274.573 225.831L272.731 225.831C272.731 224.439 272.392 223.189 271.713 222.08C271.034 220.976 270.074 220.108 268.835 219.474C267.59 218.835 266.105 218.515 264.379 218.515L264.379 218.515C262.596 218.515 261.094 218.79 259.872 219.338C258.649 219.882 257.724 220.6 257.096 221.494C256.462 222.382 256.146 223.358 256.146 224.422L256.146 224.422C256.146 225.429 256.403 226.34 256.918 227.155C257.427 227.97 258.307 228.714 259.558 229.387C260.808 230.054 262.546 230.68 264.769 231.262L264.769 231.262C266.829 231.811 268.612 232.456 270.117 233.197C271.622 233.939 272.785 234.858 273.606 235.956C274.432 237.053 274.845 238.431 274.845 240.089L274.845 240.089C274.845 241.73 274.386 243.136 273.47 244.307C272.559 245.472 271.328 246.358 269.777 246.963C268.221 247.574 266.476 247.88 264.54 247.88L264.54 247.88C263.227 247.88 261.909 247.716 260.585 247.388C259.261 247.065 258.052 246.553 256.96 245.851C255.868 245.144 254.991 244.216 254.329 243.068C253.661 241.925 253.327 240.53 253.327 238.884L253.327 238.884L255.178 238.884C255.178 240.281 255.461 241.45 256.027 242.389C256.593 243.328 257.337 244.08 258.259 244.646C259.187 245.212 260.2 245.619 261.298 245.868C262.396 246.117 263.476 246.242 264.54 246.242L264.54 246.242C266.215 246.242 267.684 245.982 268.946 245.461C270.207 244.946 271.195 244.233 271.908 243.322C272.621 242.411 272.977 241.348 272.977 240.131ZM312.591 230.456L312.591 234.326C312.591 237.048 312.119 239.424 311.174 241.455C310.229 243.486 308.893 245.065 307.167 246.191C305.442 247.317 303.404 247.88 301.056 247.88L301.056 247.88C298.719 247.88 296.685 247.317 294.953 246.191C293.216 245.065 291.863 243.486 290.896 241.455C289.928 239.424 289.444 237.048 289.444 234.326L289.444 234.326L289.444 230.456C289.444 227.735 289.925 225.356 290.887 223.319C291.849 221.276 293.193 219.692 294.919 218.566C296.645 217.44 298.677 216.877 301.014 216.877L301.014 216.877C303.362 216.877 305.402 217.44 307.134 218.566C308.865 219.692 310.209 221.276 311.165 223.319C312.116 225.356 312.591 227.735 312.591 230.456L312.591 230.456ZM310.749 234.326L310.749 230.414C310.749 228.037 310.367 225.961 309.604 224.184C308.834 222.408 307.725 221.027 306.276 220.043C304.822 219.053 303.068 218.558 301.014 218.558L301.014 218.558C298.982 218.558 297.239 219.053 295.785 220.043C294.336 221.027 293.224 222.408 292.449 224.184C291.68 225.961 291.295 228.037 291.295 230.414L291.295 230.414L291.295 234.326C291.295 236.703 291.685 238.782 292.466 240.564C293.241 242.346 294.359 243.732 295.819 244.723C297.279 245.707 299.025 246.199 301.056 246.199L301.056 246.199C303.11 246.199 304.859 245.707 306.302 244.723C307.75 243.732 308.854 242.346 309.612 240.564C310.37 238.782 310.749 236.703 310.749 234.326L310.749 234.326ZM329.109 234.946L320.222 234.946L320.222 233.316L329.109 233.316C331.016 233.316 332.567 232.999 333.761 232.366C334.955 231.738 335.829 230.886 336.384 229.811C336.938 228.731 337.215 227.542 337.215 226.247L337.215 226.247C337.215 224.923 336.938 223.706 336.384 222.597C335.829 221.494 334.955 220.609 333.761 219.941C332.567 219.268 331.016 218.931 329.109 218.931L329.109 218.931L321.088 218.931L321.088 247.464L319.246 247.464L319.246 217.293L329.109 217.293C331.276 217.293 333.099 217.666 334.576 218.413C336.058 219.16 337.176 220.201 337.928 221.536C338.681 222.866 339.057 224.422 339.057 226.204L339.057 226.204C339.057 228.015 338.684 229.574 337.937 230.881C337.19 232.182 336.078 233.186 334.601 233.893C333.124 234.595 331.293 234.946 329.109 234.946L329.109 234.946ZM363.63 245.826L363.63 247.464L346.162 247.464L346.162 245.826L363.63 245.826ZM346.909 217.293L346.909 247.464L345.067 247.464L345.067 217.293L346.909 217.293ZM361.517 231.118L361.517 232.756L346.162 232.756L346.162 231.118L361.517 231.118ZM363.588 217.293L363.588 218.931L346.162 218.931L346.162 217.293L363.588 217.293ZM391.335 217.293L391.335 247.464L389.494 247.464L371.091 220.425L371.091 247.464L369.224 247.464L369.224 217.293L371.091 217.293L389.511 244.315L389.511 217.293L391.335 217.293ZM430.126 231.118L430.126 232.756L410.807 232.756L410.807 231.118L430.126 231.118ZM411.393 217.293L411.393 247.464L409.542 247.464L409.542 217.293L411.393 217.293ZM431.493 217.293L431.493 247.464L429.651 247.464L429.651 217.293L431.493 217.293ZM449.148 218.659L438.47 247.464L436.526 247.464L447.858 217.293L449.335 217.293L449.148 218.659ZM459.198 247.464L448.503 218.659L448.316 217.293L449.768 217.293L461.125 247.464L459.198 247.464ZM456.668 237.084L456.668 238.722L441.084 238.722L441.084 237.084L456.668 237.084ZM487.871 217.293L487.871 247.464L486.029 247.464L467.626 220.425L467.626 247.464L465.759 247.464L465.759 217.293L467.626 217.293L486.054 244.315L486.054 217.293L487.871 217.293ZM504.159 247.464L497.072 247.464L497.114 245.826L504.159 245.826C506.327 245.826 508.231 245.322 509.872 244.315C511.507 243.308 512.789 241.916 513.717 240.14C514.639 238.363 515.1 236.315 515.1 233.995L515.1 233.995L515.1 230.702C515.1 228.366 514.639 226.317 513.717 224.558C512.789 222.798 511.51 221.42 509.88 220.425C508.251 219.429 506.372 218.931 504.244 218.931L504.244 218.931L496.953 218.931L496.953 217.293L504.244 217.293C506.689 217.293 508.864 217.856 510.771 218.982C512.678 220.108 514.181 221.681 515.279 223.701C516.376 225.715 516.925 228.069 516.925 230.762L516.925 230.762L516.925 233.995C516.925 236.688 516.376 239.045 515.279 241.065C514.181 243.079 512.676 244.649 510.763 245.775C508.85 246.901 506.649 247.464 504.159 247.464L504.159 247.464ZM497.691 217.293L497.691 247.464L495.849 247.464L495.849 217.293L497.691 217.293Z" fill="#4d7e3e" fill-rule="nonzero" opacity="1" stroke="none"/>
<path d="M333.185 178.482C333.185 176.544 332.168 176.209 330.912 176.209C329.656 176.209 328.638 177.227 328.638 178.482L328.638 187.348L327.729 187.348L327.729 162.796C327.729 161.54 326.712 160.523 325.455 160.523C324.199 160.523 323.182 161.54 323.182 162.796L323.182 180.301L322.273 180.301L322.273 160.068C322.273 158.813 321.255 157.794 320 157.794C318.744 157.794 317.726 158.813 317.726 160.068L317.726 180.301L316.817 180.301L316.817 162.796C316.817 161.54 315.799 160.523 314.544 160.523C313.288 160.523 312.27 161.54 312.27 162.796L312.27 181.665L311.361 181.665L311.361 170.98C311.361 169.725 310.343 168.707 309.088 168.707C307.832 168.707 306.814 169.725 306.814 171.662L306.814 190.531C306.816 196.45 312.717 202.351 320 202.352C327.283 202.351 333.184 196.45 333.185 189.167L333.186 189.166L333.185 178.482Z" fill="#4d7e3e" fill-rule="nonzero" opacity="1" stroke="none"/>
<g opacity="1">
<path d="M341.186 198.445L517.76 198.445L517.76 198.445L517.76 201.352L517.76 201.352L341.186 201.352L341.186 201.352L341.186 198.445L341.186 198.445Z" fill="#4d7e3e" fill-rule="nonzero" opacity="1" stroke="none"/>
<path d="M122.24 198.445L298.814 198.445L298.814 198.445L298.814 201.352L298.814 201.352L122.24 201.352L122.24 201.352L122.24 198.445L122.24 198.445Z" fill="#4d7e3e" fill-rule="nonzero" opacity="1" stroke="none"/>
<path d="M341.186 192.63L517.76 192.63L517.76 192.63L517.76 195.537L517.76 195.537L341.186 195.537L341.186 195.537L341.186 192.63L341.186 192.63Z" fill="#4d7e3e" fill-rule="nonzero" opacity="1" stroke="none"/>
<path d="M122.24 192.63L298.814 192.63L298.814 192.63L298.814 195.537L298.814 195.537L122.24 195.537L122.24 195.537L122.24 192.63L122.24 192.63Z" fill="#4d7e3e" fill-rule="nonzero" opacity="1" stroke="none"/>
</g>
</g>
</g>
</svg>
